<svg width="512" height="512" viewBox="0 0 512 512" fill="none" xmlns="http://www.w3.org/2000/svg">
<g clip-path="url(#clip0_243_2)">
<path d="M72.4918 197.502C61.7314 229.634 60.0874 264.738 67.726 297.75C75.348 330.962 92.2362 362.082 116.248 386.293C116.224 299.444 116.264 212.604 116.232 125.756C96.5454 146.014 81.2846 170.634 72.4918 197.502Z" fill="white"/>
<path d="M144.312 102.44C134.772 108.71 126.104 116.19 117.892 124.094C117.934 212.048 117.876 300 117.916 387.953C125.938 396.098 134.822 403.38 144.288 409.781C144.27 307.332 144.22 204.882 144.312 102.44Z" fill="white"/>
<path d="M147.566 100.258C147.634 204.194 147.534 308.12 147.616 412.056C155.462 417.121 163.692 421.597 172.184 425.474C172.194 379.011 172.168 332.54 172.202 286.076C172.226 283.37 170.98 280.896 170.3 278.338C165.842 262.646 166.156 245.55 171.512 230.124C171.936 228.862 172.226 227.55 172.202 226.22C172.168 179.7 172.184 133.186 172.194 86.6741C163.724 90.7001 155.346 94.994 147.566 100.258Z" fill="white"/>
<path d="M177.176 84.532C177.142 128.694 177.208 172.85 177.142 217.012C182.772 206.66 190.668 197.592 200.092 190.526C200.1 152.574 200.108 114.63 200.092 76.678C192.278 78.752 184.648 81.452 177.176 84.532Z" fill="white"/>
<path d="M177.208 295.368C177.126 339.464 177.174 383.561 177.184 427.657C184.64 430.788 192.294 433.42 200.09 435.553C200.116 397.593 200.092 359.632 200.108 321.679C190.758 314.613 182.896 305.612 177.208 295.368Z" fill="white"/>
<path d="M206.75 74.958C206.75 111.99 206.734 149.02 206.758 186.06C218.458 179.002 231.932 174.976 245.59 174.378C247.55 174.436 249.22 172.56 248.97 170.616C249.02 138.484 248.954 106.352 249.004 74.22C249.294 72.284 247.866 70.01 245.748 70.184C232.622 70.284 219.536 72.06 206.75 74.958Z" fill="white"/>
<path d="M206.8 326.113C206.666 363.153 206.784 400.192 206.75 437.231C219.528 440.137 232.606 441.922 245.724 441.997C247.792 442.088 249.318 440.046 248.978 438.078C248.986 405.913 249.004 373.747 248.97 341.59C249.302 339.24 247.028 337.596 244.86 337.771C231.468 337.106 218.266 333.079 206.8 326.113Z" fill="white"/>
<path d="M338.914 440H316V391.774H323.111C332.593 391.774 339.704 389.27 344.444 384.263C349.449 379.256 351.951 372.009 351.951 362.521V299.274C351.951 287.678 353.531 278.586 356.691 271.998C360.115 265.41 365.119 260.666 371.704 257.767C378.288 254.605 386.848 252.496 397.383 251.442V258.558C386.848 257.24 378.288 255.132 371.704 252.233C365.119 249.334 360.115 244.59 356.691 238.002C353.531 231.414 351.951 222.322 351.951 210.727V147.479C351.951 137.991 349.449 130.744 344.444 125.737C339.704 120.73 332.593 118.227 323.111 118.227H316V70H338.914C363.671 70 382.239 76.0613 394.617 88.1838C407.259 100.306 413.58 117.831 413.58 140.759V212.308C413.58 218.369 415.16 222.981 418.321 226.143C421.481 229.306 425.695 230.887 430.963 230.887H444V279.113H430.963C425.695 279.113 421.481 280.694 418.321 283.857C415.16 286.756 413.58 291.368 413.58 297.692V369.241C413.58 391.905 407.259 409.298 394.617 421.421C382.239 433.807 363.671 440 338.914 440Z" fill="white"/>
</g>
<defs>
<clipPath id="clip0_243_2">
<rect width="512" height="512" fill="white"/>
</clipPath>
</defs>
</svg>
