<svg width="200" height="200" viewBox="0 0 200 200" fill="none" xmlns="http://www.w3.org/2000/svg">
<g clip-path="url(#clip0_302_2)">
<path d="M63.0697 16.4551V22.6318C56.1442 22.819 51.4024 24.5036 48.8444 27.6856C46.2864 30.8675 45.0074 37.3562 45.0074 47.1517V59.4116C45.0074 73.5745 43.4164 83.214 40.2344 88.33C37.1149 93.3842 31.3748 96.9092 23.0144 98.9058C31.3748 100.964 37.1149 104.521 40.2344 109.574C43.4164 114.566 45.0074 124.112 45.0074 138.212V150.472C45.0074 160.33 46.2864 166.85 48.8444 170.032C51.4024 173.276 56.1442 175.023 63.0697 175.272V181.168H61.9466C47.659 181.168 37.8324 178.86 32.4667 174.243C27.1634 169.626 24.5118 161.141 24.5118 148.787V131.287C24.5118 120.805 22.7959 113.63 19.3644 109.762C15.9953 105.893 9.53777 103.491 -0.00811768 102.555V95.0683C9.53777 94.195 15.9953 91.8242 19.3644 87.9558C22.7959 84.025 24.5118 76.8188 24.5118 66.3371V48.9298C24.5118 36.5139 27.1634 27.9975 32.4667 23.3805C37.8324 18.7636 47.659 16.4551 61.9466 16.4551H63.0697Z" fill="#476072"/>
<path d="M141.097 16.4551H142.22C156.508 16.4551 166.303 18.7636 171.607 23.3805C176.972 27.9975 179.655 36.5139 179.655 48.9298V66.3371C179.655 76.8188 181.339 84.025 184.708 87.9558C188.14 91.8242 194.629 94.195 204.175 95.0683V102.555C194.629 103.491 188.14 105.893 184.708 109.762C181.339 113.63 179.655 120.805 179.655 131.287V148.787C179.655 161.141 176.972 169.626 171.607 174.243C166.303 178.86 156.508 181.168 142.22 181.168H141.097V175.272C148.023 175.023 152.764 173.276 155.323 170.032C157.88 166.85 159.159 160.33 159.159 150.472V138.212C159.159 124.112 160.719 114.566 163.838 109.574C167.021 104.521 172.792 100.964 181.153 98.9058C172.792 96.7842 167.021 93.1967 163.838 88.1425C160.719 83.0892 159.159 73.5121 159.159 59.4116V47.1517C159.159 37.3562 157.88 30.8675 155.323 27.6856C152.764 24.5036 148.023 22.819 141.097 22.6318V16.4551Z" fill="#476072"/>
<path d="M99.8375 68.1315C103.093 68.1315 105.723 69.1081 107.731 71.0611C109.793 72.9601 110.823 75.4286 110.823 78.4668C110.823 80.8539 109.658 83.675 107.324 86.93C104.992 90.1316 103.825 92.5458 103.825 94.1733C103.825 95.0408 104.015 95.7191 104.394 96.2075C104.774 96.6416 105.371 96.8583 106.185 96.8583C107.27 96.8583 108.355 96.3975 109.44 95.475C110.525 94.5533 111.718 93.115 113.021 91.1625C114.648 88.775 116.195 87.12 117.659 86.1983C119.178 85.2758 121.023 84.8141 123.193 84.8141C126.232 84.8141 128.754 85.845 130.762 87.9066C132.823 89.9141 133.854 92.4366 133.854 95.475C133.854 98.3508 132.823 100.819 130.762 102.881C128.7 104.942 126.232 105.973 123.356 105.973C121.837 105.973 119.803 105.539 117.253 104.671C114.757 103.803 113.075 103.369 112.207 103.369C110.579 103.369 109.358 103.586 108.545 104.02C107.731 104.4 107.324 104.997 107.324 105.811C107.324 106.842 108.003 107.845 109.358 108.822C110.715 109.744 112.641 110.585 115.137 111.344C118.501 112.267 120.996 113.677 122.623 115.576C124.306 117.475 125.147 119.835 125.147 122.657C125.147 125.423 124.008 127.892 121.728 130.062C119.45 132.232 116.927 133.317 114.16 133.317C110.797 133.317 108.219 132.177 106.429 129.899C104.693 127.621 103.825 124.257 103.825 119.808C103.825 117.149 103.473 115.007 102.767 113.379C102.062 111.697 101.193 110.856 100.163 110.856C99.0233 110.856 98.1008 111.534 97.3958 112.891C96.6908 114.247 96.3375 116.01 96.3375 118.18C96.3375 118.506 96.365 119.13 96.4192 120.052C96.4733 120.92 96.5008 121.68 96.5008 122.331C96.5008 125.26 95.4158 127.837 93.2458 130.062C91.075 132.232 88.5525 133.317 85.6767 133.317C82.8017 133.317 80.306 132.286 78.1901 130.225C76.0743 128.163 75.0163 125.694 75.0163 122.819C75.0163 120.052 75.7758 117.801 77.2949 116.064C78.814 114.274 81.3369 112.809 84.8633 111.67C87.5217 110.802 89.4475 109.934 90.6417 109.066C91.8892 108.143 92.5133 107.112 92.5133 105.973C92.5133 105.268 92.16 104.726 91.455 104.346C90.8042 103.912 89.9358 103.695 88.8508 103.695C87.2233 103.695 85.1075 104.156 82.5033 105.078C79.9533 106.001 78.1088 106.462 76.9694 106.462C74.1483 106.462 71.6526 105.431 69.4824 103.369C67.3665 101.253 66.3086 98.785 66.3086 95.9633C66.3086 92.7083 67.3123 90.05 69.3197 87.9883C71.327 85.8725 73.8769 84.8141 76.9694 84.8141C78.8683 84.8141 80.5502 85.2758 82.015 86.1983C83.48 87.12 85.2975 88.9916 87.4675 91.8133C89.0408 93.9833 90.3158 95.3941 91.2925 96.045C92.2692 96.6958 93.3267 97.0216 94.4659 97.0216C95.0084 97.0216 95.4425 96.7775 95.7683 96.2891C96.1483 95.7466 96.3375 95.0958 96.3375 94.3358C96.3375 92.7083 95.1717 90.3208 92.8383 87.1741C90.5058 84.0275 89.3392 81.315 89.3392 79.0365C89.3392 75.8897 90.3158 73.2855 92.2692 71.224C94.2767 69.1623 96.7992 68.1315 99.8375 68.1315Z" fill="#F08FC0"/>
</g>
<defs>
<clipPath id="clip0_302_2">
<rect width="200" height="200" fill="white"/>
</clipPath>
</defs>
</svg>
