<svg width="256" height="256" viewBox="0 0 256 256" fill="none" xmlns="http://www.w3.org/2000/svg">
<g clip-path="url(#clip0_29_223)">
<path d="M122.642 48.0995C128.75 40.2762 127.359 28.9826 119.536 22.8746C111.713 16.7667 100.419 18.1573 94.311 25.9807L54.2597 77.2804C48.1518 85.1037 49.5424 96.3973 57.3658 102.505C65.1891 108.613 76.4827 107.223 82.5907 99.3992L122.642 48.0995Z" fill="black"/>
<path d="M159.068 76.3495C165.176 68.5262 163.785 57.2326 155.962 51.1246C148.138 45.0167 136.845 46.4073 130.737 54.2307L103.3 89.3731C97.192 97.1965 98.5827 108.49 106.406 114.598C114.229 120.706 125.523 119.315 131.631 111.492L159.068 76.3495Z" fill="black"/>
<path d="M194.947 104.521C201.055 96.698 199.665 85.4045 191.841 79.2965C184.018 73.1885 172.724 74.5792 166.616 82.4025L106.446 159.471C100.338 167.295 101.729 178.588 109.552 184.696C117.376 190.804 128.669 189.414 134.777 181.59L194.947 104.521Z" fill="black"/>
<path d="M165.309 216.879C171.417 209.055 170.026 197.762 162.203 191.654C154.379 185.546 143.086 186.936 136.978 194.76L119.972 216.541C113.864 224.365 115.255 235.658 123.078 241.766C130.902 247.874 142.195 246.484 148.303 238.66L165.309 216.879Z" fill="black"/>
</g>
<defs>
<clipPath id="clip0_29_223">
<rect width="256" height="256" fill="white"/>
</clipPath>
</defs>
</svg>
